<?xml version="1.0" encoding="UTF-8"?>
<svg width="240" height="220" viewBox="0 0 240 220" xmlns="http://www.w3.org/2000/svg">

  <!-- Cloud -->
  <g fill="#4DA6FF">
    <circle cx="100" cy="90" r="30"/>
    <circle cx="130" cy="85" r="35"/>
    <circle cx="160" cy="95" r="28"/>
    <rect x="85" y="95" width="100" height="35" rx="18"/>
  </g>

  <!-- Raindrops -->
  <g fill="#2B8CFF">
    <path d="M105 150 C105 135, 120 135, 120 150 C120 160, 113 167, 112.5 167 C112 167, 105 160, 105 150 Z"/>
    <path d="M135 160 C135 145, 150 145, 150 160 C150 170, 143 177, 142.5 177 C142 177, 135 170, 135 160 Z"/>
    <path d="M165 150 C165 135, 180 135, 180 150 C180 160, 173 167, 172.5 167 C172 167, 165 160, 165 150 Z"/>
  </g>

</svg>
