<?xml version="1.0" encoding="UTF-8"?>
<svg width="240" height="220" viewBox="0 0 240 220" xmlns="http://www.w3.org/2000/svg">

  <!-- Cloud -->
  <g fill="#BFD8FF">
    <circle cx="100" cy="90" r="30"/>
    <circle cx="130" cy="85" r="35"/>
    <circle cx="160" cy="95" r="28"/>
    <rect x="85" y="95" width="100" height="35" rx="18"/>
  </g>

  <!-- Snowflakes -->
  <g stroke="#5DAEFF" stroke-width="3" stroke-linecap="round">
    
    <!-- Snowflake 1 -->
    <line x1="110" y1="150" x2="110" y2="170"/>
    <line x1="100" y1="160" x2="120" y2="160"/>
    <line x1="103" y1="153" x2="117" y2="167"/>
    <line x1="117" y1="153" x2="103" y2="167"/>

    <!-- Snowflake 2 -->
    <line x1="145" y1="155" x2="145" y2="175"/>
    <line x1="135" y1="165" x2="155" y2="165"/>
    <line x1="138" y1="158" x2="152" y2="172"/>
    <line x1="152" y1="158" x2="138" y2="172"/>

    <!-- Snowflake 3 -->
    <line x1="175" y1="150" x2="175" y2="170"/>
    <line x1="165" y1="160" x2="185" y2="160"/>
    <line x1="168" y1="153" x2="182" y2="167"/>
    <line x1="182" y1="153" x2="168" y2="167"/>

  </g>

</svg>
